<?xml version="1.0" encoding="UTF-8" standalone="no"?>
<!DOCTYPE svg PUBLIC "-//W3C//DTD SVG 1.1//EN"
 "http://www.w3.org/Graphics/SVG/1.1/DTD/svg11.dtd">
<!-- Generated by graphviz version 2.40.1 (20161225.0304)
 -->
<!-- Title: %3 Pages: 1 -->
<svg width="357pt" height="69pt"
 viewBox="0.00 0.00 356.77 69.29" xmlns="http://www.w3.org/2000/svg" xmlns:xlink="http://www.w3.org/1999/xlink">
<g id="graph0" class="graph" transform="scale(1 1) rotate(0) translate(4 65.2927)">
<title>%3</title>
<polygon fill="#ffffff" stroke="transparent" points="-4,4 -4,-65.2927 352.7695,-65.2927 352.7695,4 -4,4"/>
<text text-anchor="middle" x="174.3848" y="-46.0927" font-family="Times,serif" font-size="14.00" fill="#000000">Build app with centurylink/golang&#45;builder&#45;cross</text>
<!-- GIT -->
<g id="node1" class="node">
<title>GIT</title>
<g id="a_node1"><a xlink:href="http://github.com/bvberkum/x-docker-hub-build-monitor.git" xlink:title="GIT">
<path fill="none" stroke="#000000" d="M12,-2.7927C12,-2.7927 42,-2.7927 42,-2.7927 48,-2.7927 54,-8.7927 54,-14.7927 54,-14.7927 54,-26.7927 54,-26.7927 54,-32.7927 48,-38.7927 42,-38.7927 42,-38.7927 12,-38.7927 12,-38.7927 6,-38.7927 0,-32.7927 0,-26.7927 0,-26.7927 0,-14.7927 0,-14.7927 0,-8.7927 6,-2.7927 12,-2.7927"/>
<text text-anchor="middle" x="27" y="-16.5927" font-family="Times,serif" font-size="14.00" fill="#000000">GIT</text>
</a>
</g>
</g>
<!-- Travis -->
<g id="node2" class="node">
<title>Travis</title>
<g id="a_node2"><a xlink:href="https://travis-ci.org/bvberkum/x-docker-hub-build-monitor" xlink:title="Travis">
<path fill="none" stroke="#000000" d="M146.3037,-2.7927C146.3037,-2.7927 176.3037,-2.7927 176.3037,-2.7927 182.3037,-2.7927 188.3037,-8.7927 188.3037,-14.7927 188.3037,-14.7927 188.3037,-26.7927 188.3037,-26.7927 188.3037,-32.7927 182.3037,-38.7927 176.3037,-38.7927 176.3037,-38.7927 146.3037,-38.7927 146.3037,-38.7927 140.3037,-38.7927 134.3037,-32.7927 134.3037,-26.7927 134.3037,-26.7927 134.3037,-14.7927 134.3037,-14.7927 134.3037,-8.7927 140.3037,-2.7927 146.3037,-2.7927"/>
<text text-anchor="middle" x="161.3037" y="-16.5927" font-family="Times,serif" font-size="14.00" fill="#000000">Travis</text>
</a>
</g>
</g>
<!-- GIT&#45;&gt;Travis -->
<g id="edge1" class="edge">
<title>GIT&#45;&gt;Travis</title>
<path fill="none" stroke="#000000" d="M54.1784,-20.7927C74.2938,-20.7927 101.9331,-20.7927 124.0983,-20.7927"/>
<polygon fill="#000000" stroke="#000000" points="124.1658,-24.2928 134.1658,-20.7927 124.1657,-17.2928 124.1658,-24.2928"/>
<text text-anchor="middle" x="94.1519" y="-23.5927" font-family="Times,serif" font-size="14.00" fill="#000000">build</text>
</g>
<!-- Travis&#45;&gt;GIT -->
<g id="edge3" class="edge">
<title>Travis&#45;&gt;GIT</title>
<path fill="none" stroke="#000000" d="M134.1999,-8.0389C128.415,-5.8635 122.2527,-3.9384 116.3037,-2.7927 96.9685,.9309 91.3352,.9309 72,-2.7927 69.3044,-3.3119 66.5649,-3.991 63.8367,-4.781"/>
<polygon fill="#000000" stroke="#000000" points="62.4756,-1.5456 54.1038,-8.0389 64.6976,-8.1836 62.4756,-1.5456"/>
<text text-anchor="middle" x="94.1519" y="-5.5927" font-family="Times,serif" font-size="14.00" fill="#000000">releases</text>
</g>
<!-- Docker_Hub -->
<g id="node3" class="node">
<title>Docker_Hub</title>
<g id="a_node3"><a xlink:href="https://hub.docker.com/r/bvberkum/x-docker-hub-build-monitor" xlink:title="Docker Hub">
<path fill="none" stroke="#000000" d="M275.959,-2.7927C275.959,-2.7927 336.7695,-2.7927 336.7695,-2.7927 342.7695,-2.7927 348.7695,-8.7927 348.7695,-14.7927 348.7695,-14.7927 348.7695,-26.7927 348.7695,-26.7927 348.7695,-32.7927 342.7695,-38.7927 336.7695,-38.7927 336.7695,-38.7927 275.959,-38.7927 275.959,-38.7927 269.959,-38.7927 263.959,-32.7927 263.959,-26.7927 263.959,-26.7927 263.959,-14.7927 263.959,-14.7927 263.959,-8.7927 269.959,-2.7927 275.959,-2.7927"/>
<text text-anchor="middle" x="306.3643" y="-16.5927" font-family="Times,serif" font-size="14.00" fill="#000000">Docker Hub</text>
</a>
</g>
</g>
<!-- Travis&#45;&gt;Docker_Hub -->
<g id="edge2" class="edge">
<title>Travis&#45;&gt;Docker_Hub</title>
<path fill="none" stroke="#000000" d="M188.5885,-20.7927C206.8679,-20.7927 231.5312,-20.7927 253.5651,-20.7927"/>
<polygon fill="#000000" stroke="#000000" points="253.8001,-24.2928 263.8001,-20.7927 253.8,-17.2928 253.8001,-24.2928"/>
<text text-anchor="middle" x="226.1313" y="-23.5927" font-family="Times,serif" font-size="14.00" fill="#000000">images</text>
</g>
</g>
</svg>
